<svg version="1.1" xmlns="http://www.w3.org/2000/svg" xmlns:xlink="http://www.w3.org/1999/xlink" width="393" height="150"><defs></defs><g><g transform="translate(-582,-158) scale(1,1)"><rect fill="#C0C0C0" stroke="none" x="599" y="175" width="145" height="130" opacity="0.2"></rect></g><g transform="translate(-582,-158) scale(1,1)"><rect fill="#ffffff" stroke="none" x="592" y="168" width="145" height="130"></rect></g><g transform="translate(-582,-158) scale(1,1)"><path fill="none" stroke="#000000" d="M 592 168 L 737 168 L 737 298 L 592 298 L 592 168 Z Z" stroke-miterlimit="10"></path></g><g transform="translate(-582,-158) scale(1,1)"><path fill="none" stroke="#000000" d="M 592 193 L 737 193" stroke-miterlimit="10"></path></g><g transform="translate(-582,-158) scale(1,1)"><path fill="none" stroke="#000000" d="M 592 216 L 737 216" stroke-miterlimit="10"></path></g><g transform="translate(-582,-158) scale(1,1)"><g><path fill="none" stroke="none"></path><text fill="#000000" stroke="none" font-family="Arial" font-size="13px" font-style="normal" font-weight="bold" text-decoration="none" x="644.5" y="187.5">Animal</text></g></g><g transform="translate(-582,-158) scale(1,1)"><g><path fill="none" stroke="none"></path><text fill="#000000" stroke="none" font-family="Arial" font-size="13px" font-style="normal" font-weight="normal" text-decoration="none" x="597" y="210.5">-size: int</text></g></g><g transform="translate(-582,-158) scale(1,1)"><g><path fill="none" stroke="none"></path><text fill="#000000" stroke="none" font-family="Arial" font-size="13px" font-style="normal" font-weight="normal" text-decoration="none" x="597" y="233.5">+makeSound(): void</text></g></g><g transform="translate(-582,-158) scale(1,1)"><g><path fill="none" stroke="none"></path><text fill="#000000" stroke="none" font-family="Arial" font-size="13px" font-style="normal" font-weight="normal" text-decoration="none" x="597" y="248.5">+move(): void</text></g></g><g transform="translate(-582,-158) scale(1,1)"><g><path fill="none" stroke="none"></path><text fill="#000000" stroke="none" font-family="Arial" font-size="13px" font-style="normal" font-weight="normal" text-decoration="none" x="597" y="263.5">+eat(): void</text></g></g><g transform="translate(-582,-158) scale(1,1)"><g><path fill="none" stroke="none"></path><text fill="#000000" stroke="none" font-family="Arial" font-size="13px" font-style="normal" font-weight="normal" text-decoration="none" x="597" y="278.5">+setSize(size: int): void</text></g></g><g transform="translate(-582,-158) scale(1,1)"><g><path fill="none" stroke="none"></path><text fill="#000000" stroke="none" font-family="Arial" font-size="13px" font-style="normal" font-weight="normal" text-decoration="none" x="597" y="293.5">+getSize(): int</text></g></g><g transform="translate(-582,-158) scale(1,1)"><rect fill="#C0C0C0" stroke="none" x="791" y="191" width="181" height="100" opacity="0.2"></rect></g><g transform="translate(-582,-158) scale(1,1)"><rect fill="#ffffff" stroke="none" x="784" y="184" width="181" height="100"></rect></g><g transform="translate(-582,-158) scale(1,1)"><path fill="none" stroke="#000000" d="M 784 184 L 965 184 L 965 284 L 784 284 L 784 184 Z Z" stroke-miterlimit="10"></path></g><g transform="translate(-582,-158) scale(1,1)"><path fill="none" stroke="#000000" d="M 784 209 L 965 209" stroke-miterlimit="10"></path></g><g transform="translate(-582,-158) scale(1,1)"><path fill="none" stroke="#000000" d="M 784 232 L 965 232" stroke-miterlimit="10"></path></g><g transform="translate(-582,-158) scale(1,1)"><g><path fill="none" stroke="none"></path><text fill="#000000" stroke="none" font-family="Arial" font-size="13px" font-style="normal" font-weight="bold" text-decoration="none" x="864.5" y="203.5">Cat</text></g></g><g transform="translate(-582,-158) scale(1,1)"><g><path fill="none" stroke="none"></path><text fill="#000000" stroke="none" font-family="Arial" font-size="13px" font-style="normal" font-weight="normal" text-decoration="none" x="789" y="226.5">-breed: String</text></g></g><g transform="translate(-582,-158) scale(1,1)"><g><path fill="none" stroke="none"></path><text fill="#000000" stroke="none" font-family="Arial" font-size="13px" font-style="normal" font-weight="normal" text-decoration="none" x="789" y="249.5">+purr(): void</text></g></g><g transform="translate(-582,-158) scale(1,1)"><g><path fill="none" stroke="none"></path><text fill="#000000" stroke="none" font-family="Arial" font-size="13px" font-style="normal" font-weight="normal" text-decoration="none" x="789" y="264.5">+setBreed(breed: String): void</text></g></g><g transform="translate(-582,-158) scale(1,1)"><g><path fill="none" stroke="none"></path><text fill="#000000" stroke="none" font-family="Arial" font-size="13px" font-style="normal" font-weight="normal" text-decoration="none" x="789" y="279.5">+getBreed(): String</text></g></g><g transform="translate(-582,-158) scale(1,1)"><path fill="none" stroke="#000000" d="M 783 234 L 738 233" stroke-miterlimit="10"></path></g><g transform="translate(-582,-158) scale(1,1)"><path fill="#FFFFFF" stroke="none" d="M 758.5073764685235 225.03460544742126 L 738 233 L 758.1332894681932 241.86852046228356"></path></g><g transform="translate(-582,-158) scale(1,1)"><path fill="none" stroke="#000000" d="M 758.5073764685235 225.03460544742126 L 738 233 L 758.1332894681932 241.86852046228356 L 758.5073764685235 225.03460544742126" stroke-miterlimit="10"></path></g></g></svg>